<?xml version="1.0" encoding="UTF-8"?>
<!DOCTYPE svg PUBLIC "-//W3C//DTD SVG 1.1//EN" "http://www.w3.org/Graphics/SVG/1.1/DTD/svg11.dtd">
<!-- Creator: CorelDRAW -->
<svg xmlns="http://www.w3.org/2000/svg" xml:space="preserve" width="5.72005in" height="4.67432in" version="1.1" style="shape-rendering:geometricPrecision; text-rendering:geometricPrecision; image-rendering:optimizeQuality; fill-rule:evenodd; clip-rule:evenodd"
viewBox="0 0 4488.02 3667.53"
 xmlns:xlink="http://www.w3.org/1999/xlink"
 xmlns:xodm="http://www.corel.com/coreldraw/odm/2003">
 <defs>
  <style type="text/css">
   <![CDATA[
    .fil0 {fill:#FEFEFE}
    .fil3 {fill:#FFF212}
    .fil2 {fill:#F58634}
    .fil1 {fill:#ED3237}
    .fil7 {fill:#A53692}
    .fil4 {fill:#76C04E}
    .fil5 {fill:#00AFEF}
    .fil6 {fill:#0077BD}
   ]]>
  </style>
 </defs>
 <g id="Layer_x0020_1">
  <metadata id="CorelCorpID_0Corel-Layer"/>
  <g id="_2884550372864">
   <path class="fil0" d="M309.03 1612.89l3.77 0.35 406.63 -0.35 38.12 0 -0.01 -0.03 193 -0.17c74.38,0 148.77,0.15 223.15,-0 232.72,-0.47 179.43,133.37 179.43,488.52 -41.84,4.12 -232.91,4.24 -430.19,3.39l-0.16 -0.99 -184.48 0c-110.85,-0.69 -207.98,-1.37 -261.53,-1.41 -8.83,-0.01 -15.97,0.27 -21.73,1.41l-130.67 0 41.74 258.03 113.87 0c4.53,0.11 9.43,0.1 14.73,0l469.8 0 -0.41 -2.57 88.98 0c256.81,-0.05 300.06,86.87 300.05,292.46l4.48 196.05 489.86 0c-2.24,-10.3 -0.45,-19.8 2.36,-26.03 5.4,-11.83 6.45,-17.77 3,-15.01 -3.47,2.79 -11.01,7.96 -15.13,3.62 -4.11,-4.32 -2.22,-9.63 -2.22,-9.63 0,0 -1.32,1.23 -4.1,3.06 -2.77,1.82 -7.87,2.42 -10.41,-0.28 -2.47,-2.74 -4.36,-8.4 0,-14.6 4.45,-6.17 13.43,-12.24 13.43,-12.24 0,0 -1.12,0 -3.8,-0.94 -2.72,-1.01 -5.55,-4.61 -5.55,-8.08 0,-3.48 1.88,-4.41 2.25,-7.86 0.41,-3.42 0,-8.79 3.67,-15.91 3.63,-7.06 10.52,-16.56 10.52,-16.56 0,0 -0.46,0.06 -2.1,-0.94 -1.63,-1.05 -3.51,-4.61 -2.39,-9 1.16,-4.41 7.47,-4.32 13.22,-8.35 14.69,-10.34 13.26,-8.03 30.85,-8.03 13.01,0 22.63,7.45 22.63,7.45 0,0 27.62,-13.84 51.37,-55.94 23.7,-42.2 27.35,-46.58 40.57,-60.9 13.23,-14.42 21.67,-13.43 29.68,-29.17 8.04,-15.74 0.32,-32.87 7.21,-55.85 6.91,-23.05 19.92,-44.09 24.17,-72.45 4.18,-28.36 8.86,-23.8 8.5,-65.21 -0.4,-41.36 32.19,-54.8 57.87,-63.23 25.69,-8.4 101.16,-18 105.75,-45.58 4.24,-25.47 -2.86,-35.34 -12.58,-58.57 -2.21,-5.41 -2.5,1.86 -8.23,-3.26 -5.78,-5.15 -4.33,-8.89 -12.01,-12.43 -7.67,-3.55 -8.96,-12.39 -8.75,-16.87 0.25,-4.55 -8.78,-9.16 -6.49,-18.04 2.28,-8.88 6.94,-9.87 11.39,-8.62 4.42,1.34 5.26,3.42 5.26,3.42 0,0 -0.52,-1.52 -1.14,-4.36 -1.2,-1.73 -2.49,-4.29 -3.86,-8.01 -4.49,-12.46 -3.35,-29.2 3.75,-43.32 7.04,-14.08 4.3,-16.77 10.17,-27.8 5.89,-11.04 13.14,-14.12 18.47,-12.9 4.95,1.18 8.67,2.47 9.14,2.69 0.02,0 0.02,-0.06 0.02,-0.06 -0.04,-0.36 -0.49,-3.69 8.89,-10.79 9.96,-7.56 12.96,-7.56 27.46,-6.34 14.52,1.23 17.25,-1.58 30.8,0.2 13.54,1.88 24.73,3.92 31.41,12.27 6.68,8.4 5.28,-2.44 20.39,30.49 15.11,32.9 9.63,47.59 8.66,52.08 -0.51,2.37 -2.44,6.93 -4.48,11.01 -0.67,3.15 -1.29,4.83 -1.29,4.83 0,0 0.87,-2.08 5.28,-3.42 4.45,-1.25 9.16,-0.27 11.46,8.62 2.24,8.89 -6.74,13.49 -6.55,18.04 0.24,4.48 -1.08,13.32 -8.73,16.87 -7.67,3.54 -6.22,7.27 -12,12.43 -5.73,5.12 -5.98,-2.15 -8.27,3.26 -9.95,23.96 -16.89,32.3 -12.55,58.57 4.64,27.58 80.06,37.18 105.74,45.58 25.69,8.43 58.28,21.86 57.92,63.23 -0.37,41.41 4.24,36.84 8.49,65.21 4.25,28.36 17.28,49.4 24.13,72.45 6.94,22.97 -0.85,40.11 7.18,55.85 8.11,15.74 16.49,14.75 29.78,29.17 13.17,14.33 16.8,18.71 40.55,60.9 23.75,42.1 51.35,55.94 51.35,55.94 0,0 9.63,-7.45 22.61,-7.45 17.64,0 16.2,-2.31 30.91,8.03 5.71,4.03 12.02,3.94 13.21,8.35 1.14,4.38 -0.8,7.94 -2.41,9 -1.59,1.01 -2.11,0.94 -2.11,0.94 0,0 6.89,9.51 10.52,16.56 3.63,7.12 3.25,12.49 3.63,15.91 0.35,3.46 2.3,4.39 2.3,7.86 0,3.47 -2.86,7.07 -5.55,8.08 -2.62,0.94 -3.76,0.94 -3.76,0.94 0,0 8.96,6.08 13.32,12.24 4.49,6.2 2.55,11.86 0,14.6 -2.47,2.71 -7.57,2.1 -10.32,0.28 -2.8,-1.84 -4.11,-3.06 -4.11,-3.06 0,0 1.94,5.31 -2.22,9.63 -4.09,4.33 -11.66,-0.83 -15.11,-3.62 -3.49,-2.76 -2.41,3.18 2.94,15.01 2.82,6.23 4.63,15.72 2.4,26.03l470.59 0 5.71 -0.3 3.82 -207.89c1.9,-103.37 17.31,-189.48 106.91,-247.22 49.9,-32.16 106.38,-33.2 174.99,-33.11l173.47 0.02 -0.41 2.56 598.4 0 41.74 -258.03 -191.94 0c-3.99,-0.69 -9.03,-0.9 -15.37,-0.9l-884.83 0 0 -373.92c0,-48.38 38.84,-89.9 71.75,-104.65 49.04,-21.98 444.99,-11.44 514.76,-11.44l72.47 0.02 -0.03 0.19 411.99 0c19.26,0.49 32.3,2.31 41.04,0l145.38 0 41.74 -258.04 -598.41 0 0 0.01 -1065.25 0c-115.83,0 -186.15,52.95 -235.71,127.96l-315.37 477.4 -323.73 -490.39c-45.25,-57.28 -114.64,-114.96 -228.86,-114.96l-1004.87 0 0 -0.01 -598.41 0 41.74 258.04 149.89 0zm2072.01 1234.69c-35.71,-7.41 -71.31,-17.16 -107.47,-30.62 -36.13,13.47 -71.72,23.21 -107.43,30.62l214.9 0zm184.34 -122.83c0.56,-1.32 0.75,-2.87 0.75,-4.63 -0.28,-13.05 -18.55,-26.68 -34.13,-29.7 -15.51,-3.09 -22.99,0.4 -30.21,-3.44 -7.19,-3.9 -20.55,-19.39 -47.97,-11.15 -6.42,1.88 -11.15,3.8 -15.13,5.7 -4.56,-1.14 -9.02,-2.43 -12.93,-3.82 0.67,-0.85 1.18,-1.68 1.81,-2.4 2.93,-3.71 -8.62,-3.16 -13.8,-8.08 -2.84,-2.71 -5.54,-2.62 -7.24,-2.87 -0.41,-1.13 -0.77,-2.32 -1.14,-3.71 1.7,-4.88 5.3,-2.97 2.01,-7.86 -3.33,-4.95 -1.09,-3.85 -2.61,-12.49 -1.51,-8.64 3.36,-11.26 1.12,-16.45 -0.37,-0.91 -0.91,-1.59 -1.52,-2.06 3.06,-38.72 14.78,-91.3 30.06,-121.1 0,0 4.79,23.35 13.05,38.3 8.24,14.93 13.18,31.96 14.93,41.76 7.81,44.36 5.72,26.75 31.49,64.71 19.74,28.91 66.27,55.53 98.51,81.96 32.18,26.44 24.93,24.52 24.93,24.52 0,0 -17.98,-10.64 -51.98,-27.2zm-577.48 0c-0.51,-1.32 -0.82,-2.87 -0.77,-4.63 0.27,-13.05 18.58,-26.68 34.12,-29.7 15.57,-3.09 23.04,0.4 30.26,-3.44 7.21,-3.9 20.5,-19.39 47.98,-11.15 6.37,1.88 11.08,3.8 15.09,5.7 4.43,-1.07 8.66,-2.37 12.56,-3.69 -0.54,-0.69 -0.97,-1.29 -1.41,-1.81 -2.97,-3.75 8.59,-3.18 13.82,-8.14 2.63,-2.55 5.24,-2.61 6.9,-2.85 0.48,-1.14 0.95,-2.44 1.33,-4.01 -1.71,-4.46 -5.1,-2.84 -1.88,-7.56 3.35,-4.92 1.1,-3.85 2.62,-12.49 1.48,-8.59 -3.4,-11.24 -1.12,-16.41 0.38,-1.03 0.94,-1.7 1.56,-2.14 -3.04,-38.79 -14.8,-91.78 -30.08,-121.72 0,0 -4.86,23.35 -13.05,38.3 -8.24,14.93 -13.25,31.96 -14.98,41.76 -7.81,44.36 -5.73,26.75 -31.49,64.71 -19.74,28.91 -66.3,55.53 -98.51,81.96 -32.16,26.44 -24.88,24.52 -24.88,24.52 0,0 17.95,-10.64 51.93,-27.2zm-900.25 562.94l-56.72 0 0 -358.27 155.58 0 0 57.25 -95.33 0 0 95.77 75.26 0 0 57.25 -75.26 0 0 148.01 -3.54 0zm186.88 0l-56.72 0 0 -358.27 60.26 0 0 358.27 -3.54 0zm93.03 -301.03l-58.2 0 0 -57.25 176.65 0 0 57.25 -58.2 0 0 301.03 -60.26 0 0 -301.03zm274.62 152.66l41.33 -209.91 82.71 0 0 358.27 -60.26 0 0 -209.75 -43.26 209.75 -42.87 0 -43.26 -209.75 0 209.75 -59.25 0 0 -358.27 81.66 0 43.2 209.91zm229.11 148.36l-56.72 0 0 -358.27 60.26 0 0 358.27 -3.54 0zm107.61 0l-55.71 0 0 -358.27 64.9 0 61.52 214.21 0 -214.21 59.26 0 0 358.27 -62.33 0 -64.1 -205.13 0 205.13 -3.54 0zm265.15 0l-86.82 0 0 -358.27 86.82 0c26.28,0 47.94,8.64 63.08,23.88 15.19,15.28 23.74,37.11 23.74,63.45l0 183.63c0,26.33 -8.56,48.17 -23.74,63.45 -15.15,15.24 -36.81,23.88 -63.08,23.88zm-26.56 -301.03l0 243.78 24.05 0c9.31,0 16.62,-2.65 21.53,-7.55 4.9,-4.91 7.55,-12.22 7.55,-21.52l0 -185.63c0,-9.31 -2.65,-16.62 -7.55,-21.52 -4.91,-4.9 -12.22,-7.55 -21.53,-7.55l-24.05 0zm313.78 301.03l-56.72 0 0 -358.27 155.58 0 0 57.25 -95.33 0 0 95.77 75.26 0 0 57.25 -75.26 0 0 148.01 -3.54 0zm281.7 0l-151.54 0 0 -358.27 60.26 0 0 301.03 94.83 0 0 57.25 -3.54 0zm183.43 -19.37c-15.58,15.49 -37.75,24.38 -64.28,24.38 -26.52,0 -48.7,-8.89 -64.28,-24.38 -15.62,-15.53 -24.55,-37.61 -24.55,-63.94l0 -191.65c0,-26.33 8.93,-48.42 24.55,-63.95 15.58,-15.49 37.76,-24.38 64.28,-24.38 26.53,0 48.7,8.9 64.28,24.38 15.62,15.53 24.55,37.62 24.55,63.95l0 191.65c0,26.33 -8.93,48.42 -24.55,63.94zm-85.28 -40.96c4.9,5.28 12.12,8.1 21,8.1 8.88,0 16.1,-2.82 21,-8.1 4.85,-5.23 7.57,-13 7.57,-22.99l0 -191.65c0,-9.99 -2.72,-17.76 -7.57,-22.98 -4.9,-5.28 -12.11,-8.1 -21,-8.1 -8.88,0 -16.1,2.81 -21,8.1 -4.85,5.23 -7.57,13 -7.57,22.98l0 191.65c0,9.99 2.73,17.76 7.57,22.99zm335.31 -86.16l25.98 -211.79 59.9 0c-17.63,119.42 -35.16,238.85 -52.72,358.27l-64.88 0 -24.97 -205.52 -24.97 205.52 -64.88 0c-17.71,-119.4 -35.2,-238.85 -52.72,-358.27l60.91 0 25.97 211.79 25.97 -211.79 60.44 0 25.97 211.79zm256.62 126.29c-15.76,15.85 -38.02,25.2 -64.22,25.2 -26.21,0 -48.47,-9.35 -64.22,-25.2 -15.87,-15.96 -25.11,-38.48 -25.11,-64.63l0 -15.71 58.25 -6.29 0 16.98c0,11.92 2.96,21.43 8.31,27.88 5.21,6.28 12.82,9.73 22.27,9.73 9.55,0 17.22,-2.89 22.44,-8.03 5.24,-5.16 8.14,-12.72 8.14,-22.05 0,-10.39 -2.13,-19.37 -8.91,-30.16 -7.05,-11.2 -19.05,-24.42 -38.63,-43.02 -26.6,-25.06 -43.73,-44.51 -54.26,-62.64 -10.7,-18.42 -14.6,-35.39 -14.6,-55.32 0,-27.23 8.01,-49.8 22.74,-65.53 14.52,-15.51 35.46,-24.3 61.58,-24.3 26.15,0 47.11,8.8 61.63,24.41 14.69,15.79 22.69,38.46 22.69,65.93l0 12.2 -58.25 6.29 0 -13.97c0,-12.71 -2.37,-22.26 -6.81,-28.54 -4.26,-6.01 -10.6,-9.07 -18.75,-9.07 -8.28,0 -14.7,2.51 -18.95,7.42 -4.31,4.98 -6.61,12.57 -6.61,22.65 0,10.34 2.6,19.31 9.64,30.13 7.28,11.19 19.32,24.46 37.99,43.13 25.76,25.77 42.86,45.16 53.58,63.1 10.9,18.23 15.19,34.84 15.19,54.8 0,26.14 -9.24,48.66 -25.11,64.63zm-2202.51 178.25l-25.2 -77.72 22.65 0 21.21 67.29 -11.44 0 22.32 -67.29 20.21 0 21.09 67.29 -10.99 0 21.88 -67.29 20.98 0 -25.2 77.72 -23.54 0 -17.98 -57.18 6.33 0 -18.77 57.18 -23.54 0zm162.55 -77.72l21.98 0 0 77.72 -21.98 0 0 -77.72zm-29.98 77.72l-21.98 0 0 -77.72 21.98 0 0 77.72zm31.53 -30.31l-33.09 0 0 -18.21 33.09 0 0 18.21zm56.18 -17.32l36.08 0 0 16.43 -36.08 0 0 -16.43zm1.55 30.65l40.64 0 0 16.99 -62.4 0 0 -77.72 60.96 0 0 16.99 -39.2 0 0 43.75zm52.85 16.99l0 -77.72 35.53 0c7.1,0 13.23,1.15 18.38,3.44 5.14,2.3 9.12,5.61 11.94,9.94 2.81,4.33 4.22,9.46 4.22,15.38 0,5.84 -1.41,10.9 -4.22,15.15 -2.81,4.26 -6.79,7.51 -11.94,9.77 -5.14,2.25 -11.27,3.39 -18.38,3.39l-23.32 0 9.77 -9.22 0 29.87 -21.98 0zm48.08 0l-19.32 -28.31 23.43 0 19.43 28.31 -23.54 0zm-26.09 -27.54l-9.77 -10.1 21.99 0c4.59,0 8.01,-1 10.27,-3 2.25,-2 3.39,-4.78 3.39,-8.32 0,-3.63 -1.13,-6.44 -3.39,-8.44 -2.26,-2 -5.68,-3 -10.27,-3l-21.99 0 9.77 -10.1 0 42.97zm80.39 -20.1l36.09 0 0 16.43 -36.09 0 0 -16.43zm1.55 30.65l40.64 0 0 16.99 -62.4 0 0 -77.72 60.96 0 0 16.99 -39.19 0 0 43.75zm105.59 -26.65l35.86 0 0 16.99 -35.86 0 0 -16.99zm1.56 43.64l-21.98 0 0 -77.72 60.96 0 0 16.99 -38.97 0 0 60.74zm49.3 0l0 -77.72 21.98 0 0 77.72 -21.98 0zm54.18 0l0 -60.29 -23.87 0 0 -17.43 69.61 0 0 17.43 -23.76 0 0 60.29 -21.98 0zm53.96 0l0 -77.72 18.1 0 42.86 51.74 -8.55 0 0 -51.74 21.54 0 0 77.72 -18.1 0 -42.86 -51.74 8.55 0 0 51.74 -21.54 0zm109.7 -47.63l36.09 0 0 16.43 -36.09 0 0 -16.43zm1.55 30.65l40.64 0 0 16.99 -62.4 0 0 -77.72 60.96 0 0 16.99 -39.19 0 0 43.75zm80.17 18.54c-6.37,0 -12.49,-0.79 -18.38,-2.38 -5.88,-1.59 -10.68,-3.65 -14.38,-6.16l7.22 -16.21c3.48,2.22 7.49,4.05 12.05,5.5 4.55,1.44 9.08,2.17 13.6,2.17 3.03,0 5.48,-0.28 7.33,-0.83 1.85,-0.55 3.2,-1.3 4.05,-2.22 0.85,-0.93 1.28,-2.02 1.28,-3.28 0,-1.78 -0.81,-3.18 -2.44,-4.22 -1.63,-1.04 -3.74,-1.89 -6.33,-2.56 -2.59,-0.66 -5.46,-1.33 -8.6,-2 -3.15,-0.66 -6.3,-1.52 -9.44,-2.55 -3.14,-1.03 -6.01,-2.39 -8.6,-4.05 -2.59,-1.66 -4.7,-3.85 -6.33,-6.55 -1.63,-2.71 -2.44,-6.13 -2.44,-10.27 0,-4.67 1.28,-8.88 3.83,-12.66 2.55,-3.77 6.38,-6.81 11.49,-9.1 5.11,-2.3 11.47,-3.44 19.1,-3.44 5.11,0 10.12,0.57 15.04,1.72 4.92,1.15 9.31,2.83 13.16,5.05l-6.77 16.32c-3.7,-2 -7.36,-3.5 -10.99,-4.5 -3.63,-1 -7.14,-1.5 -10.55,-1.5 -3.04,0 -5.48,0.31 -7.33,0.94 -1.85,0.63 -3.18,1.46 -4,2.5 -0.81,1.04 -1.22,2.22 -1.22,3.56 0,1.7 0.8,3.05 2.39,4.05 1.59,1 3.7,1.81 6.33,2.44 2.63,0.63 5.51,1.28 8.66,1.94 3.15,0.67 6.3,1.5 9.44,2.5 3.15,1 6.01,2.33 8.6,4 2.59,1.66 4.68,3.85 6.27,6.55 1.59,2.7 2.39,6.09 2.39,10.16 0,4.52 -1.28,8.68 -3.83,12.49 -2.55,3.81 -6.36,6.87 -11.44,9.16 -5.07,2.29 -11.45,3.44 -19.15,3.44zm71.84 0c-6.37,0 -12.49,-0.79 -18.38,-2.38 -5.88,-1.59 -10.68,-3.65 -14.38,-6.16l7.22 -16.21c3.48,2.22 7.49,4.05 12.05,5.5 4.55,1.44 9.08,2.17 13.6,2.17 3.03,0 5.48,-0.28 7.33,-0.83 1.85,-0.55 3.2,-1.3 4.05,-2.22 0.85,-0.93 1.28,-2.02 1.28,-3.28 0,-1.78 -0.81,-3.18 -2.44,-4.22 -1.63,-1.04 -3.74,-1.89 -6.33,-2.56 -2.59,-0.66 -5.46,-1.33 -8.6,-2 -3.15,-0.66 -6.3,-1.52 -9.44,-2.55 -3.14,-1.03 -6.01,-2.39 -8.61,-4.05 -2.59,-1.66 -4.7,-3.85 -6.33,-6.55 -1.63,-2.71 -2.44,-6.13 -2.44,-10.27 0,-4.67 1.28,-8.88 3.83,-12.66 2.55,-3.77 6.38,-6.81 11.49,-9.1 5.11,-2.3 11.47,-3.44 19.1,-3.44 5.11,0 10.12,0.57 15.05,1.72 4.92,1.15 9.31,2.83 13.16,5.05l-6.77 16.32c-3.7,-2 -7.36,-3.5 -10.99,-4.5 -3.63,-1 -7.14,-1.5 -10.55,-1.5 -3.04,0 -5.48,0.31 -7.33,0.94 -1.85,0.63 -3.18,1.46 -3.99,2.5 -0.82,1.04 -1.23,2.22 -1.23,3.56 0,1.7 0.8,3.05 2.39,4.05 1.59,1 3.7,1.81 6.33,2.44 2.63,0.63 5.51,1.28 8.66,1.94 3.14,0.67 6.29,1.5 9.44,2.5 3.14,1 6.01,2.33 8.6,4 2.59,1.66 4.68,3.85 6.28,6.55 1.59,2.7 2.39,6.09 2.39,10.16 0,4.52 -1.28,8.68 -3.83,12.49 -2.55,3.81 -6.36,6.87 -11.43,9.16 -5.07,2.29 -11.46,3.44 -19.16,3.44zm76.83 -1.55l0 -77.72 18.1 0 32.2 52.85 -9.55 0 31.31 -52.85 18.1 0 0.23 77.72 -20.21 0 -0.22 -46.97 3.44 0 -23.43 39.3 -9.77 0 -24.09 -39.3 4.22 0 0 46.97 -20.32 0zm126.13 -47.63l36.08 0 0 16.43 -36.08 0 0 -16.43zm1.55 30.65l40.64 0 0 16.99 -62.4 0 0 -77.72 60.96 0 0 16.99 -39.19 0 0 43.75zm73.06 -30.65l36.08 0 0 16.43 -36.08 0 0 -16.43zm1.55 30.65l40.64 0 0 16.99 -62.4 0 0 -77.72 60.96 0 0 16.99 -39.19 0 0 43.75zm69.4 16.99l0 -60.29 -23.87 0 0 -17.43 69.61 0 0 17.43 -23.76 0 0 60.29 -21.98 0zm81.05 1.55c-6.37,0 -12.49,-0.79 -18.38,-2.38 -5.88,-1.59 -10.68,-3.65 -14.38,-6.16l7.22 -16.21c3.48,2.22 7.49,4.05 12.05,5.5 4.55,1.44 9.08,2.17 13.6,2.17 3.03,0 5.48,-0.28 7.33,-0.83 1.85,-0.55 3.2,-1.3 4.05,-2.22 0.85,-0.93 1.28,-2.02 1.28,-3.28 0,-1.78 -0.81,-3.18 -2.44,-4.22 -1.63,-1.04 -3.74,-1.89 -6.33,-2.56 -2.59,-0.66 -5.46,-1.33 -8.6,-2 -3.15,-0.66 -6.3,-1.52 -9.44,-2.55 -3.14,-1.03 -6.01,-2.39 -8.61,-4.05 -2.59,-1.66 -4.7,-3.85 -6.33,-6.55 -1.63,-2.71 -2.44,-6.13 -2.44,-10.27 0,-4.67 1.28,-8.88 3.83,-12.66 2.55,-3.77 6.38,-6.81 11.49,-9.1 5.11,-2.3 11.48,-3.44 19.1,-3.44 5.11,0 10.12,0.57 15.04,1.72 4.92,1.15 9.31,2.83 13.16,5.05l-6.77 16.32c-3.7,-2 -7.36,-3.5 -10.99,-4.5 -3.63,-1 -7.14,-1.5 -10.55,-1.5 -3.04,0 -5.48,0.31 -7.33,0.94 -1.85,0.63 -3.18,1.46 -4,2.5 -0.82,1.04 -1.22,2.22 -1.22,3.56 0,1.7 0.8,3.05 2.39,4.05 1.59,1 3.7,1.81 6.33,2.44 2.63,0.63 5.51,1.28 8.66,1.94 3.14,0.67 6.3,1.5 9.44,2.5 3.15,1 6.01,2.33 8.6,4 2.59,1.66 4.68,3.85 6.27,6.55 1.59,2.7 2.39,6.09 2.39,10.16 0,4.52 -1.28,8.68 -3.83,12.49 -2.55,3.81 -6.36,6.87 -11.44,9.16 -5.07,2.29 -11.45,3.44 -19.15,3.44zm104.14 0c-6.37,0 -12.49,-0.79 -18.37,-2.38 -5.89,-1.59 -10.68,-3.65 -14.38,-6.16l7.22 -16.21c3.48,2.22 7.49,4.05 12.05,5.5 4.55,1.44 9.08,2.17 13.6,2.17 3.03,0 5.48,-0.28 7.32,-0.83 1.85,-0.55 3.2,-1.3 4.05,-2.22 0.85,-0.93 1.28,-2.02 1.28,-3.28 0,-1.78 -0.81,-3.18 -2.44,-4.22 -1.63,-1.04 -3.74,-1.89 -6.33,-2.56 -2.59,-0.66 -5.46,-1.33 -8.6,-2 -3.15,-0.66 -6.3,-1.52 -9.44,-2.55 -3.14,-1.03 -6.01,-2.39 -8.61,-4.05 -2.59,-1.66 -4.7,-3.85 -6.33,-6.55 -1.63,-2.71 -2.44,-6.13 -2.44,-10.27 0,-4.67 1.28,-8.88 3.83,-12.66 2.55,-3.77 6.39,-6.81 11.49,-9.1 5.11,-2.3 11.48,-3.44 19.1,-3.44 5.11,0 10.12,0.57 15.05,1.72 4.92,1.15 9.31,2.83 13.16,5.05l-6.77 16.32c-3.7,-2 -7.36,-3.5 -10.99,-4.5 -3.63,-1 -7.14,-1.5 -10.55,-1.5 -3.04,0 -5.48,0.31 -7.33,0.94 -1.85,0.63 -3.18,1.46 -3.99,2.5 -0.82,1.04 -1.22,2.22 -1.22,3.56 0,1.7 0.8,3.05 2.38,4.05 1.59,1 3.7,1.81 6.33,2.44 2.63,0.63 5.51,1.28 8.66,1.94 3.14,0.67 6.3,1.5 9.44,2.5 3.14,1 6.01,2.33 8.6,4 2.59,1.66 4.68,3.85 6.27,6.55 1.59,2.7 2.39,6.09 2.39,10.16 0,4.52 -1.28,8.68 -3.83,12.49 -2.55,3.81 -6.36,6.87 -11.43,9.16 -5.07,2.29 -11.45,3.44 -19.16,3.44zm64.73 -49.18l36.09 0 0 16.43 -36.09 0 0 -16.43zm1.55 30.65l40.64 0 0 16.99 -62.4 0 0 -77.72 60.96 0 0 16.99 -39.19 0 0 43.75zm52.85 16.99l0 -77.72 35.53 0c7.1,0 13.23,1.15 18.37,3.44 5.14,2.3 9.12,5.61 11.94,9.94 2.81,4.33 4.22,9.46 4.22,15.38 0,5.84 -1.4,10.9 -4.22,15.15 -2.81,4.26 -6.79,7.51 -11.94,9.77 -5.14,2.25 -11.27,3.39 -18.37,3.39l-23.32 0 9.77 -9.22 0 29.87 -21.99 0zm48.08 0l-19.32 -28.31 23.43 0 19.43 28.31 -23.54 0zm-26.09 -27.54l-9.77 -10.1 21.98 0c4.59,0 8.01,-1 10.27,-3 2.25,-2 3.39,-4.78 3.39,-8.32 0,-3.63 -1.13,-6.44 -3.39,-8.44 -2.26,-2 -5.68,-3 -10.27,-3l-21.98 0 9.77 -10.1 0 42.97zm80.39 -20.1l36.08 0 0 16.43 -36.08 0 0 -16.43zm1.55 30.65l40.64 0 0 16.99 -62.4 0 0 -77.72 60.96 0 0 16.99 -39.19 0 0 43.75zm52.85 16.99l0 -77.72 18.1 0 42.86 51.74 -8.55 0 0 -51.74 21.54 0 0 77.72 -18.1 0 -42.86 -51.74 8.55 0 0 51.74 -21.54 0zm89.49 0l0 -77.72 21.98 0 0 77.72 -21.98 0zm54.18 0l0 -60.29 -23.87 0 0 -17.43 69.61 0 0 17.43 -23.76 0 0 60.29 -21.98 0zm71.72 0l0 -32.87 5.11 13.21 -34.75 -58.07 23.2 0 25.1 42.08 -13.44 0 25.2 -42.08 21.32 0 -34.64 58.07 4.89 -13.21 0 32.87 -21.99 0zm-2134.3 -41.59l127.57 0 0 5.45 -127.57 0 0 -5.45zm2236.1 0l127.57 0 0 5.45 -127.57 0 0 -5.45zm-2922.36 263.37l306.42 -210.49 3.09 -772.24 1.47 0.62c-5.58,-9.26 -11.25,-18.28 -16.92,-27l-23.84 -34.74c8.11,4.56 23.62,27.08 30.55,36.59 2.02,2.77 7.86,10.57 9.18,13.2 -1.68,-10.35 -21.57,-49.42 -27.13,-59.46 -22.81,-41.26 -42.34,-67.85 -76.61,-98 -10.2,-8.98 -26.66,-19.75 -40.08,-25.82 -4.81,-2.18 -11.97,-4.18 -15.79,-6.2 10.59,-0.95 20.53,5.72 28.46,6.28 -0.92,-0.5 -6.1,-5.61 -12.1,-9.22 -4.91,-2.96 -9.75,-5.23 -15.73,-6.54 -20.8,-4.53 -34.73,6.64 -46.6,19.1 -4.26,4.47 -5.76,7.93 -9.3,12.97 -3.28,4.67 -7.48,1.95 -13.13,9.12 -4.46,5.67 -3.72,11.3 -3.77,19.3 -34.33,16.53 -69.78,52.5 -88.08,86.59 -6.51,12.11 -12.25,27.93 -14.91,43.31 -4.65,26.9 0.4,79.21 17.74,94.36 3.47,3.03 9.11,4.36 11.83,17.3 7.02,33.43 -12.12,59.72 10.53,54.36 5.14,-1.22 9.71,-0.99 14.89,-0.16 0.02,5.65 -0.93,11.85 0.82,17.11 2.37,7.14 6.95,3.14 11.41,6.58 3.1,5.17 0.03,13.13 7.69,13.76 8.95,0.73 10.79,-4.26 14.67,5.83 3.56,9.25 12.98,17.72 25.61,18.87 -4.61,4 -13.21,5.91 -20.04,7.56 -10.85,2.62 -15.59,0.38 -25.39,1.18 -26.6,2.18 -52.3,23.56 -62.84,48.36 -2.81,6.63 -10.54,36.27 -12.28,44.27 -3.38,15.62 -5.54,31.92 -7.33,48.09 -3.14,28.34 -1.3,15.13 -13.8,42 -21.35,45.87 -16.55,41.55 -25.44,86.63 -7.82,-1.66 -17.32,-5.3 -25.39,-7.63 -28.41,-8.21 -47.1,-11.01 -65.94,-36.69 1.06,-1.4 13.53,-9.46 16.35,-11.76 69.14,-56.55 46.97,-166.12 -37.19,-191.89 -23.61,-7.22 -48.86,-6.8 -72.12,2.12 -13.11,5.03 -6.85,3.76 -19.83,-0.79 -65.71,-23.01 -125.2,26.67 -130.21,84.21 -2.16,24.73 5.16,47.18 18.5,65.98 11.25,15.87 29.73,29.61 48.87,35.87 20.26,6.63 29.27,4.88 50.51,3.16 4.29,2.84 7.17,5.68 12.08,8.72 14.21,8.79 29.62,15.06 47.21,16.93 11.65,1.24 7.5,-0.68 21.32,21.54 13.47,21.65 37.97,56.49 52.88,74.66 13.47,16.43 26.19,31.53 41.09,44.53 15.57,13.59 28.94,26.33 44.99,39.74 11.55,9.65 12.59,11.88 28.22,3.41 13.88,-7.51 24.1,-17.87 34.7,-28.64 3.31,-3.35 6.33,-7.75 9.61,-11.81 6.3,-7.77 11.35,-16.66 16.71,-26.09 6.83,-12.02 21.37,-46.11 23.67,-60.92 4.66,18.14 1.75,70.33 -0.04,90.67 -2.55,29.16 -8.44,55.84 -11.38,84.41 -3.02,29.31 -4.61,58.04 -8.91,86.96 -3.88,26.04 -14.37,184.43 -18.96,209.83zm3412.24 -210.49l279.03 188.95c0.51,-8.77 -1.47,-49.56 -2.14,-58.81 -0.57,-7.88 2.79,-26.98 3.51,-36.86 1.62,-22.22 3.43,-68.7 2.4,-91.48 -0.21,-4.74 -3.66,-9.15 -5.5,-13.41 -20.8,-48.19 2.28,-19.57 -4.06,-59.28 -2.55,-15.94 0.23,-13.59 -0.12,-25.92 -0.03,-1.16 -0.16,-2.84 -0.48,-3.94 -2.03,-6.84 -14.14,-3.05 -22.96,-7.62 0.02,-9.24 1.71,-20.06 1.71,-30.19 0.01,-9.6 -0.26,-19.09 -0.6,-28.55 -0.48,-13.05 -3.31,-45.47 -2.81,-55.31 20.53,-11.49 24.88,-18.6 40.45,-32.12 22.05,-19.12 66.3,-79.11 82.08,-102.73 3.19,-4.77 12.25,-19.33 15.43,-22.13l9.69 -8.06c16.84,-13.9 8.33,-11.66 37.03,-4.99 14.7,3.42 11.92,1.81 22.62,-8.19 12.63,-11.81 24.77,-24.42 38.37,-35.29 11.76,-9.4 6.97,-6.64 11.16,-27.04 0.75,-3.67 2.06,-11.55 2.34,-15.51 0.26,-3.78 -2.89,-9.59 -3.12,-13.12 -0.17,-2.42 10.41,-16.71 12.56,-23.96 -8.12,4.09 -16.43,12.91 -24.12,18.37 -17.01,12.07 -12.81,20.4 -37.98,10.64 -2.69,-1.04 -6.56,-1.52 -9.14,-3.02 -1.42,-0.82 -0.78,-0.37 -1.73,-1.35 12.72,0.99 21.17,5.89 29.28,7.14 13.13,-9.62 26.11,-20.58 38.44,-30.95 6.34,-5.33 11.58,-10.74 18.75,-15.9 9.89,-7.12 5.86,-0.6 12.44,-22.66 9.38,-31.44 9.69,-22.88 1.88,-53.38 -1.56,-6.1 -10.92,-49.87 -12.83,-51.32l-80.16 -19.04 -59.02 55.86c-4.28,3.76 -3.72,4.96 -5.78,11.5 -2.61,8.3 -5.13,16.49 -7.8,24.94 -3.91,12.37 -1.1,10.81 3.2,22.78 3.79,10.56 12.06,36.13 13.06,46.88l-10.15 -29.99c-8.92,4.56 -24.95,26.41 -32.74,29.48 0.55,4.73 3.75,11.81 5.12,16.89l10.15 33.11c1.32,3.82 3.65,8.25 3.99,12.33 0.1,1.16 0.27,0.68 -0.17,1.77 -1.23,3.05 -0.3,0.93 -1.81,2.13 -1.68,-6.33 -12.16,-50.26 -17.85,-55.6l2.18 69.17c-11.29,9.82 -32.54,22.61 -45.86,31.21 -7.98,5.15 -15.61,9.95 -23.99,14.66 -8.63,4.85 -5.02,3.44 -15.13,3.78 -5.93,0.2 -11.44,1.73 -17.23,2.08 7.05,-24.05 -7.67,-41.52 -8.2,-54.97 5.41,-4.99 8.58,-7.52 12.51,-14.7 3.54,-6.45 5.46,-14.04 5.94,-22.05 0.91,-15.13 -3.16,-29.57 -7.43,-41.89 -4.46,-12.88 -12.66,-24.78 -15.73,-33.99 -6.47,-19.44 -17.73,-31.89 -30.57,-45.25 -4.15,-4.31 -7.86,-8.81 -12.59,-12.6 -3.98,-3.19 -2.68,-2.17 -4.78,-7.7 -3.48,-9.17 -9,-14.75 -17.67,-20.04 -17.38,-10.62 -51.04,-23.13 -57.7,-44.26 14.12,6.03 37.29,5.32 51.16,-2.85 6,-3.54 11.67,-9.62 13.31,-19.17 2.06,-12 -1.54,-16.81 -3.14,-26.12 9.78,-4.85 12.77,-8.67 15.13,-23.62 18.9,-2 19.04,-7.38 11.94,-25.75 -2.8,-7.23 -4.28,-8.35 -5.03,-17.35 -2.38,-28.39 3.22,-22.99 7.61,-39.84 3.83,-14.68 3.95,-30.46 3.64,-45.24 -0.29,-14.15 0.57,-8.65 4.15,-19.7 8.5,-26.31 -19.29,-48.03 -32.05,-56.78 -9.16,-6.27 -19.88,-10.68 -31,-15.2 -5.31,-2.15 -11.52,-4.25 -17.36,-5.85l-19.24 -4.58 -22.38 0c-10.14,4.58 -27.32,0.58 -58.74,30.94 -14.3,13.81 -29,35.21 -35.52,55.18 -20.01,61.25 17.46,100.3 7.29,147.03 -7.26,33.39 -8.03,39.81 -7.9,75.12l2.72 675.29zm-2933.21 -118.28l62.4 -42.81 -0.11 -371.6 -61.69 -67.31 -0.61 481.72zm-130.27 89.33l114.37 -78.39 -0.25 -507.79 -112.72 -118.48 -1.4 704.66zm2889.41 -89.33l-62.4 -42.81 0.11 -371.6 61.69 -67.31 0.61 481.72zm130.28 89.33l-114.37 -78.39 0.25 -507.79 112.72 -118.48 1.4 704.66zm-1546.95 -2479.2c159.82,0 209.86,-33.35 229.23,-33.56 4.76,63.54 0.91,213.79 0.91,292.63 0,33.81 9.36,66.72 -21.55,74.95 -64.39,17.13 -296.76,8.49 -379.16,7.49 -1.66,-52.35 -6.56,-328.61 7.29,-354.1 18.08,-1.21 40.24,1.39 57.8,6.98l33.81 279.11c5.14,-52.1 5.74,-188.91 5.64,-251.26 -0.02,-20.54 -2.04,-22.89 16.7,-24.08 48.23,-3.06 36.66,14.93 42.44,132 1.72,34.86 -2.6,30.56 6.89,34.64l0 -164.8zm806.78 -120.07c-2.43,19.37 -119.5,262.04 -187.8,126.54 -46.89,-93.03 -34.14,-241.98 -17.46,-353.01l21.9 4.8c-12.45,95.23 -29.11,249.7 6.48,333.91 55.74,131.9 159.87,-103.01 176.88,-112.24zm-1410.91 103.6c32.22,-86.72 16.95,-230.77 4.19,-326.14l23.39 -3.51c7.39,108.26 31.24,256.43 -17.14,347.14 -10.99,20.62 -22.67,43.92 -50.69,45.62 -25.16,1.51 -51.67,-22.06 -61.77,-33.37 -26.18,-29.34 -54.4,-73.52 -68.76,-118.18 21.04,22.36 25.4,53.89 75.3,104.47 40.2,40.76 69.9,52.82 95.47,-16.03zm1323.95 -457.45c13.04,9.31 10.84,45.05 6.92,64.93 -14.6,73.98 -48.15,54.27 -86.38,46.67 -17.94,-3.57 -113.18,-18.23 -118.54,-30.3 18.06,-9.16 89.93,10.3 115.23,15.69 53.01,11.28 70.39,14.65 77.12,-44.54 -27.83,9.11 -87.47,-8.67 -117.95,-14.89 -69.86,-14.26 -67.19,-0.39 -64.84,-76.01 19.62,1.1 179.01,31.71 188.44,38.45zm-1396.54 120.02c-21.63,-26.7 -57.3,-113.19 -0.81,-126.59 89.47,-21.25 216.18,-42.29 308.57,-53.97 31.1,-3.94 52.64,-12.18 71.25,6.62 12.51,12.62 35.49,26.59 43.86,44.08 -81.56,6.01 -144.74,16.15 -221.46,29.94 -59.81,10.76 -157.62,36.75 -215.73,35.44 18.33,71.3 20.77,52.31 140.09,28.55 80.99,-16.12 157.23,-29.21 240.24,-39.09l97.16 -10.79c15.66,-0.08 15.1,-1.42 19.95,10.85 -6.6,5.05 -213.66,28.5 -244.25,34.04 -47.02,8.49 -203.17,44.08 -238.86,40.92zm1398.91 -183.14c19.14,-37.78 67.19,-48.91 67.19,79.51 0,64.35 -11.37,112.6 -38.71,162.05 -44.72,80.88 -86.06,57.4 -82.48,2.91 7.07,10.98 14.52,19.99 19.68,30.01 25.24,-7.35 32.18,-28.98 41.7,-54.09 26.47,-69.81 49.95,-160.57 23.74,-230.22 -10.26,3.92 -18.85,9.55 -31.12,9.84zm-1366.13 242.71c2.44,67.04 -41.2,59.74 -67.16,22.4 -76.85,-110.55 -60.82,-268.01 -32.51,-285.51 21.29,-13.15 35.92,3.88 41.83,20.64 -38.39,-21.29 -40.78,-1.06 -39.69,43.42 0.82,33.89 3.55,59.26 9.84,91.43 7.97,40.74 32.55,128.83 62.75,141.1 16.83,-7.79 15.3,-20.51 24.94,-33.49zm844.9 -159.09c-3.67,-4.88 -9.03,-10.72 -13.88,-14.5l4.6 -1.14c9.97,-3.28 9,-0.22 10.36,-6.38l0 -68.07c-1.75,-7.83 -8.89,-3.99 -14.16,-6.52 74.3,-32.02 63.28,53.75 53.25,85.12 15.83,-10.97 13.72,-49.91 15.57,-73.84 12.15,2.58 19.86,9.97 27.05,16.67 -2.11,67.07 -56.22,99.82 -89.14,82.3 -1.18,-5.01 -1.1,0.87 1.9,-5.36 13.39,-27.84 -2.25,13.14 4.46,-8.27zm74.09 -315.9c15.49,19.52 44.28,33.95 59.88,53.1 14.25,17.49 29.57,67.47 -7.94,69.27 -14.19,0.68 -65.99,-34.46 -72.94,-42.05 -14.45,-15.79 2.37,-56.51 15.03,-74.12 4.26,-5.93 -0.08,-1.57 5.97,-6.2zm156.17 236.56c-46,10.94 -65.67,10.6 -104.66,-10.02 -139.64,-73.88 -139.12,-229.62 -72.54,-221.38 -1.53,20.87 -56.28,73.64 15.05,117.52 91.93,56.57 88.9,-19.97 97.52,-36.15 30.69,0.71 52.18,26.99 72.27,41.85 24.88,18.41 48.84,22.16 46,65.16 0.48,0.16 1.32,-0.05 1.49,-0.05 0.17,-0.01 1.27,-0.04 1.47,-0.05l6.89 0.09c2.28,55.36 -3.07,170.52 -17.16,221.92 -16.55,60.4 -48.3,107.61 -84.95,137.34 -71.49,58.02 -186.87,131.62 -316.23,131.62 -57.9,0 -86.95,-13.67 -117.58,-49.41 -0.32,36.12 20.91,53.82 31.45,75.46 -29.59,-14.68 -9.52,-22.74 -57.2,-22.74 -116.47,0 -188.88,-53.59 -235.2,-144.36 -51.41,-100.71 -37.51,-84.99 58.83,-121.29 148.21,-55.87 65.86,-11.12 141.75,10.45 20.93,5.94 57.89,3.57 82.02,3.57 -11.39,27.55 -38.94,61.81 -31.29,103.68 13.41,-43.79 34.43,-75.87 62.73,-95.92 16.16,-3.86 83.06,67.22 165.67,-67.36 87.77,-4.99 66.68,-8.91 79.78,16.21 4.17,-13.89 7.22,-27.48 13.51,-36.43 4.15,8.29 11.09,40.94 16.48,53.73l3.08 -14.78c0.06,-9.87 -4.66,-24.23 -2.49,-46.97 12.06,11.29 12.39,25.29 27.31,40.08 10.76,10.66 20.73,22.85 39.51,27.44 -17.99,-33.27 -40.65,-40.6 -22.43,-91.67 29.53,-82.78 27.4,-23.2 75.2,-57.4l-20.71 -4.64c20.85,-4.49 36.65,-11.15 44.43,-25.5zm-768.98 -198.57c5.99,-24.03 22.74,-41.31 41.62,-52.16 86.78,-49.93 94.47,70.55 111.78,149.56 16.76,76.49 40.95,122.19 -22.45,126.93 -47.81,3.58 -82.92,-56.68 -92.99,-95.57 13.34,11.97 18.85,32.77 38.08,53.18 15.95,16.93 33.84,23.12 65.94,24.05 -5.52,-10.92 -10.8,-24.88 -14.98,-39.11 -2.73,-9.29 -9.18,-23.48 -8.7,-33.04 0.49,-9.66 -1.5,-1.49 2.47,-7.74 25.35,-9.17 39.32,60.12 26.06,78.07 26.67,-8.35 13.13,-60.79 5.19,-76.62 -5.77,-11.5 -14.34,-22.13 -33.7,-17.34 -11.26,2.78 -15.85,10.63 -23.03,15.88 -6.41,4.68 2.41,1.22 -5.37,2.77 -0.61,-19.75 4.18,-13.34 14.32,-24.6 -22.61,-22.32 -68.72,-82.09 -43.04,-113.67l-22.3 0.15c13.15,-17.59 30.28,-16.2 44.84,-29.38 -50.38,-0.76 -59.16,21.43 -83.72,38.63zm253.36 331.29c5.4,-7.25 -0.22,-12.97 -4.2,-32.47 -5.14,-25.2 -1.77,-23.17 -13.27,-42.04 24.56,-15.17 48.43,-27.44 65.54,4.48 11.57,21.59 19.28,51.95 9.86,75.92 20.26,-29.63 18.32,-68.9 -3.48,-96.7 -25.2,-32.12 -66.75,-3.96 -90.3,7.8 5.2,-12.94 5.99,-15.09 15.94,-22.57l19.78 -12.95 -26.51 -3.45c-2.55,-16.06 -30.81,-215.94 -40.91,-226.42l-11.08 -7.26c14.12,-7.71 34.52,-14.65 49.3,-23.19 -9.31,0 -19.6,0.52 -28.7,0.33l-21.3 -5.04c7.47,-10.57 10.48,-8.31 32.64,-17.55 11.35,-4.74 22.71,-8.71 31.78,-14.35 -29.48,-1.45 -47.86,10.1 -70.89,16.92 20.25,-46.28 108.07,-52.95 141.78,-12.89 14.57,17.3 9.95,64.63 10.98,92.23l20.02 289.35c3.58,38.19 -3.36,53.31 -32.75,66.43 -13,5.79 -69.3,19.75 -70.07,-18.85 9.24,-3.7 9.28,-0.72 23.5,0.44l-18.8 -11.26 11.14 -6.93zm483.25 -295.76c-42.08,-10.03 -24.63,-28.12 -47.37,-69.1l-6.65 -8.82c0.23,11.41 1.07,17.72 2.41,28.78 2.82,23.41 -1.01,20.17 -2.94,23.08 -27.2,-42.5 -69.7,-60.58 -120.98,-54.58 -2.3,-25.61 7.55,-34.05 21.69,-43.04l-22.07 -3.3c42.74,-26.44 85.38,-18.55 122.29,10.56 35.55,28.05 53.63,68.72 53.64,116.43zm241.07 177.36c12.64,-104.66 162.49,-416.5 240.85,-295.63 26.72,41.22 33.47,108.47 32.4,169.18l-6.56 -23.69c-0.82,-7.83 -1.16,-14.11 -2.15,-22.05 -10.73,-85.32 -46.26,-203.91 -134.69,-80.32 -69.63,97.33 -99.15,242.58 -113.02,258.6l-16.83 -6.09zm-1529.76 -93.54c-3.68,-53.85 4.03,-140.37 23.27,-182.98 34.37,-76.05 91.84,-41.88 120.66,-4.93 33.6,43.08 52.65,73.67 77.7,130.29 11.15,25.22 50.1,123.93 52.88,152.55l-20.14 4.63c-5.89,-12.26 -34.13,-106.62 -50.63,-146.51 -19.31,-46.72 -42.96,-91.28 -72.61,-124.33 -38.82,-43.26 -69.12,-71.91 -103.11,7.47 -20.84,48.68 -14.45,116.8 -28.03,163.83zm950.08 146.12c-0.72,-0.23 -2.07,-0.76 -2.94,-1.03l-15.27 -3.99c17.81,-10.94 58.4,-13.11 77.85,-5.99 8.8,32.33 11.96,74.76 -3.29,101.6 30.37,-8.87 27.49,-63.75 18.68,-98.33 -9.58,-37.59 -63.76,-20.13 -98.77,-19.29 4.98,-3.85 5.09,-3.94 11.71,-7.17 10.89,-5.31 21.09,-6.86 32.17,-14.95l-36.13 -3.56c-5.44,-54.08 -3.4,-119.08 -3.45,-175.42 -0.14,-147.91 7.59,-107.75 49.72,-128.86l-49.57 -0.55c7.09,-25.01 23.36,-24.61 54.81,-24.67 -13.89,-7.96 -35.06,-6.7 -49.99,-2.09 -17.29,5.35 -24.14,12.84 -36.85,21.13 13.55,-33.97 42.57,-33.47 85.4,-33.44 40.83,0.02 63.1,10.24 83.59,31.18 15.46,15.81 8.77,19 2.7,40.91 -9.33,33.71 -15.59,114.87 -19.8,152.24 -3.98,35.28 -6.65,69.56 -9.88,105.13 -6.97,76.49 8.17,59.12 10.19,97.58 3.52,67.09 -61.52,114.99 -109.17,81.31l-7.61 -6.67c9.12,-4.07 19.05,-1.23 32.35,-1.2l-35.26 -19.87 26.47 -0.87 -4.67 -82.05c-0.91,-0.54 -2.25,-0.84 -2.98,-1.08zm1212.92 -63.32c1.16,100.2 -8.62,182.32 -30.66,273.96 -17.04,70.79 -50.2,168.16 -81.23,223.44 -17.63,31.4 -43.62,71 -64.71,89.1 -56.93,48.88 -75.08,16.78 -99.37,0.82 -21.02,22.02 -50.46,49.04 -80.78,66.54 -19.14,11.05 -39.32,14.37 -61.7,4.49 -20.28,-8.94 -25.96,-22.91 -40.25,-31.46 -29.72,13.31 -51.22,31.02 -93.09,32.78 -34.17,1.44 -76.21,-17.84 -73.36,-44.83 39.25,-4.92 40.51,-1.43 69.31,-20.36 54.16,-35.58 84.57,-98.52 114.33,-154.55 80.92,-152.32 126.98,-411.17 115.71,-586.84 -3.27,-51.02 -13.1,-106.83 -33.08,-146.24 -9.25,-18.27 -22.66,-38.77 -40.78,-48.87 -30.93,-17.25 -49.1,0.79 -71.88,0.63 9.57,-12.58 35.77,-30.47 51.44,-39.33 69.45,-39.32 134.15,-1.21 165.84,76.08 52.28,-0.47 68.95,-8.45 98.8,26.46 14.8,17.31 33.52,62.28 40.45,88.53 54.63,0 82.44,9.67 95.83,58.21 11.53,41.8 18.63,84.27 19.18,131.42zm-2271.86 -302.06c18.15,-22.42 31.52,-75.65 87.8,-90.28 55.73,-14.48 104.45,21.43 126.71,48.19 -28.5,-1.41 -44.02,-12.96 -69.88,4.82 -49.89,34.28 -67.17,138.13 -70.27,199.57 -10.08,199.66 36.47,409.66 117.91,585.5 17.79,38.39 45.19,83.09 69.67,109.44 27.55,29.65 52.61,64.69 118.21,56.45 -14.9,38.87 -74.75,67.5 -133.82,38.02 -15.15,-7.56 -28.15,-18.95 -42.57,-22.91 -71.71,96.5 -158.49,-24.19 -182.09,-38.73 -39.39,34.03 -59.35,31.52 -98.77,-5.5 -17.55,-16.48 -49.54,-65.27 -61.85,-88.86 -88.45,-169.55 -144.07,-431.03 -93.65,-622.55 12.08,-45.85 35.34,-60.74 89.45,-60.74 9.26,-2.29 18.7,-32.17 23.89,-44.41 22.47,-52.95 50.26,-87.17 119.24,-68.02zm-10.56 -27.57c-60.41,0 -75.31,4.74 -104.85,38.46 -36.29,41.45 -13.61,70.88 -65.56,81.34 -40.49,8.16 -58.86,28.36 -73.76,69.56 -21.49,59.42 -20.97,111.3 -20.97,176.09 0,21.03 1.69,88.92 7.16,100.32 -72.52,6.03 -38.33,128.24 -22.61,165.93 20.01,47.99 36.46,41.89 65.6,41.89 14.69,63.07 80.17,208.26 130,253.38 19.59,17.73 38.94,34.49 65.83,37.79 20.24,2.49 33.68,-5.91 51.39,-15.28 11.22,7.51 20.57,21.64 50.84,42.33 62.73,42.89 89.75,27.71 135.48,-2.92 23.22,5.41 63.12,38.96 122.41,22.11 141.3,-40.16 158.27,-303.83 141.24,-421.9 -3.63,-25.19 -9.26,-63.52 -9.26,-87.48 37.59,0 69.9,-14.33 107.49,-14.33 16.43,70.54 -11.53,134.03 68.03,286.69 4.73,9.07 11.04,16.38 14.59,24.81 7.25,17.23 3.44,52.09 3.35,75.47 -0.11,30.41 3.77,45.55 3.62,75.21l-0.02 250.83 2.56 64.5 615.59 0 -5.46 -64.5c0,-40.85 -3.58,-71.5 -3.58,-114.66l0.02 -179.16c-5.54,-102.61 -18.29,-65.29 85.51,-147.35 48.67,-38.46 116.71,-108.3 139.23,-165.32 9.58,-24.24 23.66,-66.99 26.05,-95.78 12.55,0 31.33,3.3 39.41,7.17 -11.76,141.32 -38.15,301.03 45.8,434.32 85.37,135.55 195.37,49.38 205.01,49.38 20.26,0 54.26,62.99 138.25,2.1l51.64 -41.51c57.62,30.49 76.17,9.04 109.04,-16.36 10.62,-8.2 8.65,-5.65 16.41,-15.84 22.36,-29.35 28.48,-30.08 50.12,-71.7 40.04,-77.05 50.26,-127.4 71.65,-171.99 31.89,0 47.1,2.47 66.12,-44.96 17.43,-43.49 19.87,-64.81 19.87,-112.69 0,-31.27 -17.82,-44.29 -42.99,-50.16 7.39,-88.73 29.25,-312.07 -78.2,-344.58 -26.13,-7.9 -32.01,4.97 -45.01,-23.07 -17.64,-38.05 -40.85,-101.71 -113.26,-101.71 -13.5,0 -6.77,2.36 -21.5,3.58 -59.62,-112.69 -152.87,-114.08 -244.51,-33.12 -80.35,70.99 -157.6,236.85 -184.63,342.11 -7.63,29.69 2.19,24.3 -52.86,15.18 -34.77,-5.75 -4.91,6.1 -23.07,-59.16 -16.67,-59.91 -71.97,-73.91 -82.56,-93 -21.67,-39.03 -25.75,-189.93 -179.12,-189.93 -15.85,0 -28.99,3.66 -41.58,8.7 -19.44,7.79 -16.58,11.72 -32.22,0.96 -46.38,-31.89 -94.9,-47.09 -153.32,-28.98 -21,6.51 -49.26,25.52 -59.51,40.81 -95.82,-50.69 -175.3,8.03 -182.72,35.84 -40.48,-9.43 -49.37,-27.8 -108.8,2.27 -18.89,9.57 -30.08,20.61 -42.61,36.21 -25.69,31.96 -30.55,71.37 -38.49,119.17 -21.48,129.39 4.78,103.58 -113.11,123.35 -22.11,3.71 -46.91,9.22 -69.61,9.22 -4.81,-57.81 -77.84,-208.66 -107.29,-258.17 -81.51,-137.1 -234.11,-245.59 -326.25,-71.46zm86.4 742.5c16.33,67.95 183.83,298.93 264.12,217.73 -13.45,-10.02 -34.44,-8.36 -66.26,-36.95 -18.65,-16.76 -33.81,-33.9 -49.31,-58.27l-77.31 -137.15c-28.38,27.71 -28.38,30.79 -71.24,14.63zm1779.46 -776.8c48.72,5.86 70.88,46.87 86.27,88.68 15.45,41.98 24.54,97.73 26.02,147.19 14.67,-2.39 23.96,-9.7 38.34,-7.61 12.2,1.79 16.67,9.17 28.96,13.6 -6.57,-80.8 -24.97,-270.55 -138.65,-260.34l-32.4 10.3c-11.7,8.32 -2.9,1.46 -8.54,8.19zm-2084.92 292.79c12.01,-6.98 30.06,-29.93 54.25,-14.86 9.89,16.93 2.48,124.04 4.7,153.56 6.63,88.03 22.34,182.87 49.03,265.7 26.99,83.77 71.1,155.18 -18.98,124.98 7.23,26.49 48.47,78.23 64.88,97.77 31.19,37.17 50.59,61.04 93.62,18.44 -4.18,-10.16 -57.69,-100.4 -80.18,-150.04 -65.83,-145.37 -95.83,-326.31 -83.34,-488.39 1.73,-22.45 10.9,-85.53 8.33,-102.93 -67.87,-14.11 -88.68,35.26 -92.31,95.78zm215.49 -45.55c10.75,-7.35 16.16,-17.39 29.28,-19.37 20.21,-3.05 23.89,9.24 36.33,8.35 13.11,-69.8 10.43,-142.96 57.57,-204.1 21.62,-28.06 22.81,-19 54.6,-34.39 -19.19,-20.25 -57.26,-20.96 -85.26,-7.16 -69.56,34.29 -90.18,181.87 -92.52,256.68zm2207.07 95.19c-0.17,-26.27 -9.16,-56.29 10.24,-68.96 24.74,-10.76 30.7,11.82 47.37,19.38 -0.41,-31.76 -7.75,-56.87 -23.77,-77.34 -18.82,-24.03 -34.75,-22.44 -70.38,-19.88 10.64,172.78 25.89,241.27 -15.62,420.63 -14.42,62.3 -33.38,117.1 -57.93,171.35 -11.78,26.05 -23.96,52.7 -37.69,77.1 -7.58,13.46 -13.59,24.33 -20.75,36.51 -7.23,12.33 -15.81,23.1 -21.01,35.97 39.93,45.02 66.36,14.35 94.77,-16.1 19.49,-20.9 53.13,-66.91 63.22,-98.53 -97.51,36.09 -40.4,-54.88 -19.16,-126 12.64,-42.28 23.67,-83.64 32.19,-129.03 16.08,-85.7 19.06,-140.02 18.52,-225.11zm-2315.61 -77.39c16.84,-7.88 43.67,-32.58 58.25,-1.22 6.57,14.15 3.31,65.43 4.23,85.9 4.79,105.68 23.39,206.83 50.48,307.21 6.68,24.77 42.29,121.99 35.91,137.46 -12.29,20.42 -42.42,20.95 -64.15,8.23 -2.51,23.23 71.57,126.51 86.52,143.41 28.95,32.7 98.5,99.9 143.72,34.17 -64.63,-79.86 -101.12,-102.06 -146.22,-217.81 -62.54,-160.5 -112.34,-456.2 -61.2,-628.74 7.99,-26.95 27.31,-49.78 -13.67,-52.62 -72.74,-5.02 -88.48,128.19 -93.87,184.01zm2203.68 84.54c1.16,-20.42 -2.53,-72.63 4.1,-86.34 17.77,-36.79 57.94,4.45 58.01,4.5 -3.76,-66.95 -35.11,-234.63 -117.61,-176.58 19.27,87.73 38.75,154.11 32.88,254.67 -5.05,86.46 -18.7,170.53 -37.06,251.34 -30.87,135.99 -66.02,246.88 -159.58,345.78 -14.63,15.46 -22.15,20.89 -33.16,37.26 42.65,63.92 111.41,1.58 142.22,-32.11 22.65,-24.75 75.34,-104.89 89.48,-140.59 -98.99,4.05 -68.14,-5.9 -29.71,-150.93 29.06,-109.67 43.91,-191.73 50.43,-306.99zm-399.38 645.86c13.5,10.84 19.62,18.86 44.46,15.9 16.28,-1.92 35.19,-10.49 47.21,-17.18 27.32,-15.2 51.79,-38.57 69.57,-59.49 30.86,-36.33 82.66,-100.09 100.96,-155.92 -51.28,9.94 -35.42,13.97 -69.76,-16.53 -12.93,13.59 -25.17,49.73 -36.36,70.72 -46.34,86.9 -69.69,115.55 -156.08,162.49z"/>
   <circle class="fil1" cx="2277.38" cy="2711.91" r="45.21"/>
   <circle class="fil2" cx="2277.38" cy="2596.62" r="45.21"/>
   <circle class="fil3" cx="2277.38" cy="2481.34" r="45.21"/>
   <circle class="fil4" cx="2277.38" cy="2366.06" r="45.21"/>
   <circle class="fil5" cx="2277.38" cy="2250.78" r="45.21"/>
   <circle class="fil6" cx="2277.38" cy="2135.5" r="45.21"/>
   <circle class="fil7" cx="2277.38" cy="2020.23" r="45.21"/>
  </g>
 </g>
</svg>
